<?xml version="1.0" encoding="utf-8"?>
<!-- Generator: Adobe Illustrator 25.4.1, SVG Export Plug-In . SVG Version: 6.00 Build 0)  -->
<svg version="1.1" id="Layer_1" xmlns="http://www.w3.org/2000/svg" xmlns:xlink="http://www.w3.org/1999/xlink" x="0px" y="0px"
	 viewBox="0 0 100 100" style="enable-background:new 0 0 100 100;" xml:space="preserve">
<style type="text/css">
	.st0{fill-rule:evenodd;clip-rule:evenodd;fill:#486E91;}
</style>
<path class="st0" d="M43.94,65.64c-8.83,0-16-7.16-16-16s7.16-16,16-16c6,0,11.23,3.31,13.97,8.2c0.66-0.11,1.34-0.21,2.03-0.21
	c6.63,0,12,5.37,12,12c0,6.62-5.37,12-12,12C57.17,65.64,47.14,65.64,43.94,65.64z M59.94,61.64c4.42,0,8-3.58,8-8
	c0-4.42-3.58-8-8-8c-1.6,0-3.08,0.48-4.33,1.29c-1.23-5.32-5.97-9.29-11.67-9.29c-6.63,0-12,5.37-12,12c0,6.63,5.37,12,12,12
	C47.56,61.64,56.92,61.64,59.94,61.64z"/>
</svg>
