<?xml version="1.0" encoding="utf-8"?>
<!-- Generator: Adobe Illustrator 25.4.1, SVG Export Plug-In . SVG Version: 6.00 Build 0)  -->
<svg version="1.1" id="Layer_1" xmlns="http://www.w3.org/2000/svg" xmlns:xlink="http://www.w3.org/1999/xlink" x="0px" y="0px"
	 viewBox="0 0 100 100" style="enable-background:new 0 0 100 100;" xml:space="preserve">
<style type="text/css">
	.st0{fill-rule:evenodd;clip-rule:evenodd;fill:#486E91;}
</style>
<path class="st0" d="M63.94,64.94v-4.38c2.39-1.38,4-3.96,4-6.92c0-4.42-3.58-8-8-8c-1.6,0-3.08,0.48-4.33,1.29
	c-1.23-5.32-5.97-9.29-11.67-9.29c-6.63,0-12,5.37-12,12c0,3.55,1.55,6.73,4,8.92v4.92c-4.78-2.77-8-7.92-8-13.84
	c0-8.83,7.16-16,16-16c6,0,11.23,3.31,13.97,8.2c0.66-0.11,1.34-0.21,2.03-0.21c6.63,0,12,5.37,12,12
	C71.94,58.86,68.6,63.29,63.94,64.94z M41.95,53.64c1.1,0,2,0.9,2,2v16c0,1.11-0.9,2-2,2s-2-0.89-2-2v-16
	C39.95,54.54,40.84,53.64,41.95,53.64z M49.94,57.64c1.1,0,2,0.9,2,2v16c0,1.1-0.9,2-2,2s-2-0.9-2-2v-16
	C47.94,58.53,48.84,57.64,49.94,57.64z M57.94,53.64c1.1,0,2,0.9,2,2v16c0,1.11-0.9,2-2,2s-2-0.89-2-2v-16
	C55.94,54.54,56.84,53.64,57.94,53.64z"/>
</svg>
