<?xml version="1.0" encoding="utf-8"?>
<!-- Generator: Adobe Illustrator 25.4.1, SVG Export Plug-In . SVG Version: 6.00 Build 0)  -->
<svg version="1.1" id="Layer_1" xmlns="http://www.w3.org/2000/svg" xmlns:xlink="http://www.w3.org/1999/xlink" x="0px" y="0px"
	 viewBox="0 0 100 100" style="enable-background:new 0 0 100 100;" xml:space="preserve">
<style type="text/css">
	.st0{fill-rule:evenodd;clip-rule:evenodd;fill:#486E91;}
</style>
<path class="st0" d="M72,52h-4c-1.11,0-2-0.9-2-2s0.89-2,2-2h4c1.11,0,2,0.9,2,2S73.1,52,72,52z M64.14,38.69
	c-0.78,0.78-2.05,0.78-2.83,0c-0.78-0.78-0.78-2.05,0-2.83l2.83-2.83c0.78-0.78,2.05-0.78,2.83,0c0.78,0.78,0.78,2.05,0,2.83
	L64.14,38.69z M50,62c-6.63,0-12-5.37-12-12c0-6.63,5.37-12,12-12c6.63,0,12,5.37,12,12C62,56.63,56.63,62,50,62z M50,42
	c-4.42,0-8,3.58-8,8c0,4.42,3.58,8,8,8s8-3.58,8-8C58,45.58,54.42,42,50,42z M50,34c-1.1,0-2-0.9-2-2v-4c0-1.1,0.9-2,2-2
	c1.1,0,2,0.9,2,2v4C52,33.11,51.1,34,50,34z M35.86,38.69l-2.83-2.83c-0.78-0.78-0.78-2.05,0-2.83s2.05-0.78,2.83,0l2.83,2.83
	c0.78,0.78,0.78,2.05,0,2.83S36.64,39.47,35.86,38.69z M34,50c0,1.1-0.9,2-2,2h-4c-1.1,0-2-0.9-2-2s0.9-2,2-2h4
	C33.11,48,34,48.9,34,50z M35.86,61.31c0.78-0.78,2.05-0.78,2.83,0c0.78,0.78,0.78,2.05,0,2.83l-2.83,2.83
	c-0.78,0.78-2.05,0.78-2.83,0c-0.78-0.78-0.78-2.05,0-2.83L35.86,61.31z M50,66c1.1,0,2,0.89,2,2v4c0,1.1-0.9,2-2,2
	c-1.1,0-2-0.9-2-2v-4C48,66.89,48.9,66,50,66z M64.14,61.31l2.83,2.83c0.78,0.78,0.78,2.05,0,2.83c-0.78,0.78-2.05,0.78-2.83,0
	l-2.83-2.83c-0.78-0.78-0.78-2.05,0-2.83C62.09,60.53,63.36,60.53,64.14,61.31z"/>
</svg>
