<?xml version="1.0" encoding="utf-8"?>
<!-- Generator: Adobe Illustrator 25.4.1, SVG Export Plug-In . SVG Version: 6.00 Build 0)  -->
<svg version="1.1" id="Layer_1" xmlns="http://www.w3.org/2000/svg" xmlns:xlink="http://www.w3.org/1999/xlink" x="0px" y="0px"
	 viewBox="0 0 596.88 183.27" style="enable-background:new 0 0 596.88 183.27;" xml:space="preserve">
<style type="text/css">
	.st0{enable-background:new    ;}
	.st1{fill:#D29C68;}
	.st2{fill:#313B64;}
	.st3{fill:#AFC6D2;}
</style>
<g>
	<g class="st0">
		<path class="st1" d="M74.65,137.2v35.41h-5.93V137.2H74.65z"/>
		<path class="st1" d="M89.37,161.27c0.14,0.87,0.39,1.71,0.75,2.52c0.36,0.82,0.81,1.54,1.33,2.18s1.12,1.15,1.79,1.53
			c0.68,0.38,1.4,0.57,2.16,0.57c2.81,0,4.77-1.61,5.88-4.84h5.56c-0.31,1.56-0.84,2.95-1.59,4.16c-0.75,1.21-1.63,2.25-2.65,3.09
			c-1.02,0.85-2.15,1.49-3.38,1.92c-1.23,0.43-2.5,0.65-3.82,0.65c-1.87,0-3.55-0.37-5.04-1.12c-1.49-0.75-2.77-1.74-3.85-2.99
			c-1.07-1.25-1.9-2.7-2.47-4.37c-0.57-1.66-0.86-3.43-0.86-5.3c0-1.73,0.29-3.38,0.86-4.94c0.57-1.56,1.39-2.94,2.44-4.13
			c1.06-1.2,2.33-2.15,3.82-2.86c1.49-0.71,3.17-1.07,5.04-1.07c1.8,0,3.43,0.32,4.89,0.96s2.7,1.53,3.72,2.65
			c1.02,1.13,1.81,2.46,2.37,4c0.55,1.54,0.83,3.22,0.83,5.02v2.34H89.37z M100.97,156.64c-0.21-1.56-0.82-2.83-1.85-3.8
			c-1.02-0.97-2.37-1.46-4.03-1.46c-0.73,0-1.41,0.14-2.05,0.42c-0.64,0.28-1.2,0.66-1.69,1.14c-0.49,0.49-0.89,1.04-1.22,1.66
			c-0.33,0.62-0.56,1.3-0.7,2.03H100.97z"/>
		<path class="st1" d="M125.2,139.64v7.12h3.69v4.89h-3.69v14.6c0,0.7,0.14,1.17,0.42,1.43c0.28,0.26,0.61,0.39,0.99,0.39
			c0.21,0,0.53-0.03,0.96-0.1c0.43-0.07,1.07-0.19,1.9-0.36v4.79c-0.76,0.24-1.51,0.42-2.24,0.52c-0.73,0.1-1.4,0.16-2.03,0.16
			c-0.8,0-1.56-0.1-2.29-0.29c-0.73-0.19-1.36-0.51-1.9-0.96c-0.54-0.45-0.97-1.02-1.3-1.72c-0.33-0.7-0.49-1.56-0.49-2.61v-15.85
			h-3.74v-4.89h3.74v-7.12H125.2z"/>
		<path class="st1" d="M145.48,137.56v7.02c0,1.84-0.64,3.41-1.92,4.71c-1.28,1.3-3.07,2.19-5.36,2.68v-4.47
			c0.83-0.28,1.39-0.62,1.66-1.04c0.28-0.42,0.45-0.92,0.52-1.51h-2.18v-7.38H145.48z"/>
		<path class="st1" d="M159.21,163.25c0.07,1.77,0.51,3.02,1.33,3.74c0.81,0.73,1.83,1.09,3.04,1.09c0.52,0,1.06-0.04,1.61-0.13
			c0.55-0.09,1.07-0.24,1.53-0.47c0.47-0.22,0.86-0.52,1.17-0.88s0.47-0.82,0.47-1.38c0-0.45-0.15-0.85-0.44-1.2
			c-0.3-0.35-0.69-0.67-1.17-0.96c-0.49-0.29-1.05-0.55-1.69-0.78c-0.64-0.22-1.31-0.46-2-0.7c-1.07-0.38-2.15-0.78-3.22-1.2
			c-1.07-0.42-2.04-0.93-2.89-1.53c-0.85-0.61-1.54-1.34-2.08-2.21c-0.54-0.87-0.81-1.92-0.81-3.17c0-1.21,0.26-2.27,0.78-3.17
			s1.22-1.65,2.11-2.24c0.88-0.59,1.9-1.03,3.04-1.33c1.14-0.29,2.34-0.44,3.59-0.44c1.39,0,2.69,0.16,3.9,0.49
			c1.21,0.33,2.26,0.84,3.15,1.53c0.88,0.69,1.59,1.58,2.13,2.65c0.54,1.08,0.84,2.34,0.91,3.8c-0.07,0-0.22,0-0.44,0
			c-0.23,0-0.46-0.01-0.7-0.03c-0.24-0.02-0.47-0.03-0.68-0.03s-0.36,0-0.47,0h-3.64c-0.17-1.32-0.65-2.2-1.43-2.65
			c-0.78-0.45-1.69-0.68-2.73-0.68c-1.14,0-2.02,0.19-2.63,0.57c-0.61,0.38-0.91,0.9-0.91,1.56c0,0.8,0.51,1.46,1.53,1.98
			c1.02,0.52,2.21,1.02,3.56,1.51l0.26,0.1c1.04,0.38,2.1,0.78,3.17,1.2c1.07,0.42,2.04,0.92,2.89,1.51
			c0.85,0.59,1.54,1.29,2.08,2.11c0.54,0.81,0.81,1.79,0.81,2.94c0,1.46-0.29,2.7-0.86,3.74c-0.57,1.04-1.35,1.89-2.34,2.55
			c-0.99,0.66-2.13,1.14-3.43,1.46c-1.3,0.31-2.68,0.47-4.13,0.47c-1.39,0-2.7-0.2-3.95-0.6c-1.25-0.4-2.34-1-3.28-1.82
			c-0.94-0.81-1.69-1.84-2.26-3.07c-0.57-1.23-0.88-2.68-0.91-4.34H159.21z"/>
		<path class="st1" d="M227.33,172.24c0,1.8-0.31,3.39-0.94,4.76s-1.46,2.52-2.52,3.46c-1.06,0.94-2.26,1.64-3.61,2.11
			s-2.76,0.7-4.21,0.7c-2.53,0-4.78-0.73-6.73-2.18c-1.96-1.46-3.49-3.8-4.6-7.02h6.03c0.66,1.46,1.41,2.5,2.26,3.15
			c0.85,0.64,1.86,0.96,3.04,0.96c0.73,0,1.41-0.15,2.05-0.44c0.64-0.29,1.2-0.69,1.69-1.2c0.49-0.5,0.88-1.11,1.17-1.82
			c0.29-0.71,0.44-1.48,0.44-2.31v-1.2c-1.63,1.28-3.45,1.92-5.46,1.92c-1.8,0-3.43-0.36-4.89-1.07s-2.69-1.67-3.69-2.89
			c-1.01-1.21-1.79-2.63-2.34-4.26c-0.55-1.63-0.83-3.38-0.83-5.25s0.27-3.61,0.81-5.23c0.54-1.61,1.31-3.02,2.31-4.24
			c1.01-1.21,2.2-2.17,3.59-2.86c1.39-0.69,2.95-1.04,4.68-1.04c0.9,0,1.85,0.14,2.86,0.42c1.01,0.28,1.99,0.78,2.96,1.51v-1.46
			h5.93V172.24z M221.4,159.35c-0.04-1.11-0.17-2.15-0.42-3.12c-0.24-0.97-0.59-1.81-1.04-2.52c-0.45-0.71-1-1.27-1.64-1.69
			c-0.64-0.42-1.38-0.62-2.21-0.62c-0.87,0-1.66,0.22-2.39,0.65c-0.73,0.43-1.36,1.02-1.9,1.77c-0.54,0.75-0.95,1.62-1.25,2.63
			c-0.29,1.01-0.44,2.08-0.44,3.22c0,1.14,0.15,2.23,0.44,3.25c0.29,1.02,0.71,1.92,1.25,2.68c0.54,0.76,1.17,1.37,1.9,1.82
			c0.73,0.45,1.52,0.68,2.39,0.68c0.83,0,1.58-0.22,2.24-0.65c0.66-0.43,1.21-1.02,1.66-1.77c0.45-0.75,0.8-1.63,1.04-2.65
			c0.24-1.02,0.36-2.11,0.36-3.25V159.35z"/>
		<path class="st1" d="M237.05,159.71c0-1.84,0.26-3.57,0.78-5.2c0.52-1.63,1.29-3.05,2.31-4.26c1.02-1.21,2.28-2.17,3.77-2.89
			c1.49-0.71,3.21-1.07,5.15-1.07c1.94,0,3.67,0.36,5.17,1.07c1.51,0.71,2.77,1.67,3.8,2.89c1.02,1.21,1.8,2.64,2.34,4.26
			c0.54,1.63,0.81,3.36,0.81,5.2c0,1.84-0.27,3.57-0.81,5.2c-0.54,1.63-1.32,3.04-2.34,4.24c-1.02,1.2-2.29,2.14-3.8,2.83
			c-1.51,0.69-3.23,1.04-5.17,1.04c-1.94,0-3.66-0.35-5.15-1.04c-1.49-0.69-2.75-1.64-3.77-2.83c-1.02-1.2-1.79-2.61-2.31-4.24
			C237.31,163.28,237.05,161.55,237.05,159.71z M242.92,159.71c0,1.14,0.14,2.22,0.42,3.22c0.28,1.01,0.68,1.88,1.22,2.63
			c0.54,0.75,1.19,1.33,1.95,1.77c0.76,0.43,1.61,0.65,2.55,0.65s1.79-0.22,2.55-0.65c0.76-0.43,1.41-1.02,1.95-1.77
			c0.54-0.75,0.95-1.62,1.25-2.63c0.29-1,0.44-2.08,0.44-3.22c0-1.14-0.15-2.22-0.44-3.22c-0.29-1-0.71-1.89-1.25-2.65
			c-0.54-0.76-1.19-1.36-1.95-1.79c-0.76-0.43-1.61-0.65-2.55-0.65s-1.79,0.22-2.55,0.65c-0.76,0.43-1.41,1.03-1.95,1.79
			c-0.54,0.76-0.94,1.65-1.22,2.65C243.06,157.49,242.92,158.57,242.92,159.71z"/>
		<path class="st1" d="M291.23,159.71c0-1.84,0.26-3.57,0.78-5.2c0.52-1.63,1.29-3.05,2.31-4.26c1.02-1.21,2.28-2.17,3.77-2.89
			c1.49-0.71,3.21-1.07,5.15-1.07c1.94,0,3.67,0.36,5.17,1.07c1.51,0.71,2.77,1.67,3.8,2.89c1.02,1.21,1.8,2.64,2.34,4.26
			c0.54,1.63,0.81,3.36,0.81,5.2c0,1.84-0.27,3.57-0.81,5.2c-0.54,1.63-1.32,3.04-2.34,4.24s-2.29,2.14-3.8,2.83
			s-3.23,1.04-5.17,1.04c-1.94,0-3.66-0.35-5.15-1.04c-1.49-0.69-2.75-1.64-3.77-2.83c-1.02-1.2-1.79-2.61-2.31-4.24
			C291.49,163.28,291.23,161.55,291.23,159.71z M297.11,159.71c0,1.14,0.14,2.22,0.42,3.22c0.28,1.01,0.68,1.88,1.22,2.63
			c0.54,0.75,1.19,1.33,1.95,1.77c0.76,0.43,1.61,0.65,2.55,0.65s1.79-0.22,2.55-0.65c0.76-0.43,1.41-1.02,1.95-1.77
			c0.54-0.75,0.95-1.62,1.25-2.63c0.29-1,0.44-2.08,0.44-3.22c0-1.14-0.15-2.22-0.44-3.22c-0.29-1-0.71-1.89-1.25-2.65
			c-0.54-0.76-1.19-1.36-1.95-1.79c-0.76-0.43-1.61-0.65-2.55-0.65s-1.79,0.22-2.55,0.65c-0.76,0.43-1.41,1.03-1.95,1.79
			c-0.54,0.76-0.94,1.65-1.22,2.65C297.25,157.49,297.11,158.57,297.11,159.71z"/>
		<path class="st1" d="M325.03,146.76h5.98v1.92c1.11-0.8,2.28-1.4,3.51-1.79c1.23-0.4,2.47-0.6,3.72-0.6
			c2.67,0,4.73,0.74,6.19,2.21s2.18,3.46,2.18,5.95v18.15h-5.93v-17.73c0-1.28-0.28-2.18-0.83-2.7c-0.56-0.52-1.32-0.78-2.29-0.78
			c-0.9,0-1.75,0.17-2.55,0.49c-0.8,0.33-1.49,0.76-2.08,1.3c-0.59,0.54-1.06,1.16-1.4,1.87c-0.35,0.71-0.52,1.45-0.52,2.21v15.34
			h-5.98V146.76z"/>
		<path class="st1" d="M377.6,155.08c0.1-1.52,0.49-2.84,1.14-3.95c0.66-1.11,1.48-2.02,2.47-2.73c0.99-0.71,2.09-1.24,3.3-1.59
			c1.21-0.35,2.43-0.52,3.64-0.52c1.35,0,2.65,0.15,3.9,0.44c1.25,0.29,2.36,0.77,3.33,1.43c0.97,0.66,1.75,1.49,2.34,2.5
			c0.59,1.01,0.88,2.24,0.88,3.69v12.64c0,0.28,0.05,0.53,0.16,0.75c0.1,0.23,0.23,0.34,0.36,0.34c0.07,0,0.31-0.07,0.73-0.21
			c0.42-0.14,0.97-0.29,1.66-0.47v4.94c-0.83,0.28-1.51,0.47-2.03,0.57c-0.52,0.1-1.08,0.16-1.66,0.16c-1.01,0-1.89-0.23-2.65-0.7
			c-0.76-0.47-1.33-1.26-1.72-2.37c-1.32,1.18-2.66,1.98-4.03,2.42c-1.37,0.43-2.75,0.65-4.13,0.65c-1.14,0-2.23-0.18-3.25-0.55
			s-1.91-0.88-2.65-1.56c-0.75-0.68-1.33-1.48-1.77-2.42c-0.43-0.94-0.65-1.99-0.65-3.17c0-1.32,0.31-2.43,0.94-3.33
			s1.43-1.65,2.42-2.24c0.99-0.59,2.09-1.08,3.3-1.48c1.21-0.4,2.41-0.75,3.59-1.07c0.73-0.21,1.41-0.41,2.05-0.6
			c0.64-0.19,1.21-0.4,1.72-0.62c0.5-0.23,0.9-0.48,1.2-0.75c0.29-0.28,0.44-0.59,0.44-0.94c0-1.07-0.4-1.84-1.2-2.29
			c-0.8-0.45-1.92-0.68-3.38-0.68c-1.11,0-2.07,0.29-2.89,0.86c-0.82,0.57-1.33,1.52-1.53,2.83H377.6z M392.63,160.18
			c-0.62,0.28-1.29,0.54-2,0.78c-0.71,0.24-1.45,0.47-2.21,0.68l-0.42,0.1c-0.66,0.21-1.29,0.42-1.9,0.62s-1.14,0.44-1.61,0.7
			s-0.85,0.56-1.14,0.91c-0.29,0.35-0.44,0.75-0.44,1.2c0,1.04,0.3,1.79,0.91,2.24c0.61,0.45,1.27,0.68,2,0.68
			c1.18,0,2.37-0.4,3.59-1.2c1.21-0.8,2.29-1.98,3.22-3.54V160.18z"/>
		<path class="st1" d="M436.83,137.2v11.02c0.94-0.69,1.98-1.19,3.12-1.48c1.14-0.29,2.32-0.44,3.54-0.44
			c1.32,0,2.52,0.21,3.61,0.62c1.09,0.42,2.04,0.99,2.83,1.72c0.8,0.73,1.42,1.59,1.87,2.6c0.45,1.01,0.68,2.08,0.68,3.22v18.15
			h-5.93v-17.52c0-1.35-0.4-2.3-1.2-2.86c-0.8-0.55-1.7-0.83-2.7-0.83c-0.69,0-1.39,0.15-2.08,0.44c-0.69,0.29-1.32,0.7-1.87,1.22
			c-0.55,0.52-1.01,1.13-1.35,1.82c-0.35,0.69-0.52,1.44-0.52,2.24v15.5h-5.98V137.2H436.83z"/>
		<path class="st1" d="M468.13,137.2v6.03h-5.93v-6.03H468.13z M468.13,146.76v25.84h-5.93v-25.84H468.13z"/>
		<path class="st1" d="M490.54,156.7c0.73,1.21,1.5,2.5,2.31,3.87c0.81,1.37,1.63,2.75,2.44,4.13c0.81,1.39,1.62,2.76,2.42,4.11
			c0.8,1.35,1.56,2.62,2.29,3.8h-6.81l-6.81-11.7l-2.91,2.91v8.79h-5.93V137.2h5.93v18.98c1.59-1.56,3.21-3.14,4.84-4.73
			c1.63-1.59,3.22-3.15,4.78-4.68h7.33L490.54,156.7z"/>
		<path class="st1" d="M513.21,161.27c0.14,0.87,0.39,1.71,0.75,2.52c0.36,0.82,0.81,1.54,1.33,2.18c0.52,0.64,1.12,1.15,1.79,1.53
			c0.68,0.38,1.4,0.57,2.16,0.57c2.81,0,4.77-1.61,5.88-4.84h5.56c-0.31,1.56-0.84,2.95-1.59,4.16c-0.75,1.21-1.63,2.25-2.65,3.09
			c-1.02,0.85-2.15,1.49-3.38,1.92c-1.23,0.43-2.5,0.65-3.82,0.65c-1.87,0-3.55-0.37-5.04-1.12c-1.49-0.75-2.77-1.74-3.85-2.99
			c-1.08-1.25-1.9-2.7-2.47-4.37c-0.57-1.66-0.86-3.43-0.86-5.3c0-1.73,0.29-3.38,0.86-4.94c0.57-1.56,1.39-2.94,2.44-4.13
			c1.06-1.2,2.33-2.15,3.82-2.86c1.49-0.71,3.17-1.07,5.04-1.07c1.8,0,3.43,0.32,4.89,0.96s2.7,1.53,3.72,2.65
			c1.02,1.13,1.81,2.46,2.37,4c0.55,1.54,0.83,3.22,0.83,5.02v2.34H513.21z M524.81,156.64c-0.21-1.56-0.82-2.83-1.85-3.8
			s-2.37-1.46-4.03-1.46c-0.73,0-1.41,0.14-2.05,0.42s-1.2,0.66-1.69,1.14c-0.49,0.49-0.89,1.04-1.22,1.66
			c-0.33,0.62-0.56,1.3-0.7,2.03H524.81z"/>
		<path class="st1" d="M547.07,137.2v14.77l-0.94,12.17h-4.58l-0.99-12.12V137.2H547.07z M547.07,166.06v6.55h-6.5v-6.55H547.07z"/>
	</g>
	<polygon class="st2" points="0,100 27.61,45.68 50.82,0 77.05,37.7 106.56,14.75 181.97,98.36 	"/>
	<polygon class="st3" points="33.95,76.84 47.83,68.64 58.35,82.51 79.08,77.45 99.15,64 105.78,82.39 126.61,69.71 141.87,72.2 
		108.31,33.54 75.98,52.25 52.61,18.03 19.09,81.78 	"/>
	<g>
		<path class="st2" d="M192.57,24.42h-14.03v-12.2h41.48v12.2h-14.03v73.2h-13.42V24.42z"/>
		<path class="st2" d="M217.58,84.69h12.93v12.93h-12.93V84.69z"/>
		<path class="st2" d="M256.87,12.22h12.93l5.98,65.64h0.24l6.34-65.64H297l6.34,65.64h0.24l5.98-65.64h11.59l-8.66,85.4h-16.71
			l-6.1-57.58h-0.24l-6.1,57.58h-17.81L256.87,12.22z"/>
		<path class="st2" d="M327.99,12.22h36.6v12.2h-23.18v22.57h18.42v12.2h-18.42v26.23h23.18v12.2h-36.6V12.22z"/>
		<path class="st2" d="M382.65,12.22h18.18l13.91,85.4h-13.42l-2.44-16.96v0.24h-15.25l-2.44,16.71h-12.44L382.65,12.22z
			 M397.29,69.32l-5.98-42.21h-0.24l-5.86,42.21H397.29z"/>
		<path class="st2" d="M426.08,24.42h-14.03v-12.2h41.48v12.2H439.5v73.2h-13.42V24.42z"/>
		<path class="st2" d="M459.99,12.22h13.42v34.77h14.4V12.22h13.42v85.4h-13.42V59.19h-14.4v38.43h-13.42V12.22z"/>
		<path class="st2" d="M511.23,12.22h36.6v12.2h-23.18v22.57h18.42v12.2h-18.42v26.23h23.18v12.2h-36.6V12.22z"/>
		<path class="st2" d="M555.52,12.22h19.89c6.91,0,11.96,1.61,15.13,4.82c3.17,3.21,4.76,8.15,4.76,14.82v5.25
			c0,8.87-2.93,14.48-8.78,16.84v0.24c3.25,0.98,5.55,2.97,6.89,5.98c1.34,3.01,2.01,7.04,2.01,12.08v15.01
			c0,2.44,0.08,4.41,0.24,5.92c0.16,1.51,0.57,2.99,1.22,4.45h-13.66c-0.49-1.38-0.81-2.68-0.98-3.9c-0.16-1.22-0.24-3.42-0.24-6.59
			V71.51c0-3.9-0.63-6.63-1.89-8.17c-1.26-1.54-3.44-2.32-6.53-2.32h-4.64v36.6h-13.42V12.22z M573.82,48.82
			c2.68,0,4.7-0.69,6.04-2.07c1.34-1.38,2.01-3.7,2.01-6.95V33.2c0-3.09-0.55-5.33-1.65-6.71c-1.1-1.38-2.83-2.07-5.18-2.07h-6.1
			v24.4H573.82z"/>
	</g>
</g>
</svg>
