<?xml version="1.0" encoding="utf-8"?>
<!-- Generator: Adobe Illustrator 25.4.1, SVG Export Plug-In . SVG Version: 6.00 Build 0)  -->
<svg version="1.1" id="Layer_1" xmlns="http://www.w3.org/2000/svg" xmlns:xlink="http://www.w3.org/1999/xlink" x="0px" y="0px"
	 viewBox="0 0 383.21 1039.06" style="enable-background:new 0 0 383.21 1039.06;" xml:space="preserve">
<style type="text/css">
	.st0{fill:#DEECF9;}
	.st1{fill:#3B456A;}
	.st2{fill:#8DB3BA;}
	.st3{fill:#427093;}
	.st4{fill:#303B64;}
	.st5{fill:#E9BB8D;}
	.st6{fill:#848689;}
	.st7{fill:#67686B;}
	.st8{fill:#7D7E81;}
	.st9{fill:#77787B;}
	.st10{fill:#B8BABC;}
	.st11{fill:#D8D9DA;}
	.st12{fill:#383A4B;stroke:#40445B;stroke-width:4;stroke-miterlimit:10;}
	.st13{fill:#444867;stroke:#40445B;stroke-width:5;stroke-miterlimit:10;}
	.st14{fill:#4E548C;}
</style>
<rect id="Rectangle_4" x="-0.94" y="2.43" class="st0" width="384.3" height="266.51"/>
<path id="Path_7" class="st1" d="M146.42,308.94c0,0,8.27-28.12-11.59-38.22s-13.94-29.25-29.86-29.49S86.9,225.7,64.61,227.06
	s-14.32-20.16-32.62-19.99c-10.97,0.09-21.83,2.12-32.08,6.01l0.31,367.1l90.95-12.32l2.45-58.1l-7.5-64.5l44.09-65.48l32.48-6.57
	l2.36-55.97L146.42,308.94z"/>
<path id="Path_10" class="st2" d="M-1.01,289.93l95.34,48.97l174.69-86.1c0,0-52.68-40.54-71.82-36.45s-22.95,16.29-52.68,13.12
	s-53.33-4.78-64.62-13.12s-32.41,0-32.41,0v-32.44l-48.5-33.64L-1.01,289.93z"/>
<path class="st3" d="M383.37,306.45V85.14c0,0-15.17-16.39-36.04,0s-15.17,39.34-30.35,39.34c-15.17,0-18.97,31.15-18.97,31.15
	s5.69,27.87-3.79,29.51s-24.66,21.31-24.66,34.43s-55.01,39.34-68.29,39.34s-36.04,13.11-36.04,13.11l32.25,50.82l183.99,4.92
	L383.37,306.45z"/>
<path id="Path_8" class="st4" d="M119.37,293.34c0,0,21.7,3.33,34.19-12.09s27.44-18.6,36.48-23.05s21.64,35.14,21.64,35.14
	s27.21-31.04,41.83-22.61s33.19-27.58,33.19-27.58s12.7-15.08,29.28-18.05c16.59-2.96,7.36-42.13,19.66-30.1
	c12.3,12.03,16.99-1.31,18.58-12.31c1.6-11-16.12-51.35,0-42.7c9.3,5.05,19.05,9.27,29.13,12.6v542.65L190.04,535.48L71.79,471.99
	l47.58-71.74l50.84-16.42l-70.87-71.2L119.37,293.34z"/>
<path id="Path_6" class="st5" d="M-0.94,563.1c0,0,73.95-6.94,72.94-56.25s-35.09-61.39-24.26-87.02
	c10.84-25.63,36.25-41.93,70.29-52.53s39.77-34.77,20.72-51.19S150,296.62,150,296.62s33.73-8.63,41.47,19.49
	c7.74,28.13,22.47,40.91,0,62.68s-80.91,12.5-80.91,41.04s67.49,49.71,102.04,57.25c34.56,7.54,93.83-10.49,99.95,10.44
	c6.12,20.94-15.71,40.12,0,48.16c15.71,8.05,43.93-6.2,60.73,81.95s13.35,423.85,13.35,423.85H-0.94V563.1z"/>
<path class="st6" d="M222.47-9.98c0,0-33.7-25.18-69.38,5.04s11.89,51.2,11.89,51.2s24.78,5.88,37.66-2.51
	c0,0,17.83,14.27,30.72,10.08c12.89-4.2,21.81-9.24,21.81-9.24s5.94,11.75,19.83,11.75c13.87,0,34.68-5.88,34.68-10.92
	c0,0,26.76-16.79,2.98-31.06c0,0,10.91-26.86-22.79-25.18S258.15,1.77,258.15,1.77S244.28-26.76,222.47-9.98z"/>
<path class="st7" d="M95.6-7.89c0,0-23.02-16.87-47.4,3.37s8.13,34.3,8.13,34.3s16.93,3.94,25.73-1.69c0,0,12.19,9.56,20.99,6.75
	s14.9-6.18,14.9-6.18s4.06,7.87,13.54,7.87s23.7-3.94,23.7-7.31c0,0,18.28-11.25,2.03-20.8c0,0,7.45-17.99-15.57-16.87
	c-23.02,1.12-21.67,8.43-21.67,8.43S110.49-19.14,95.6-7.89z"/>
<path class="st8" d="M43.13-0.65c0,0-27.97-20.59-55.34,6.88S-0.68,50.15-0.68,50.15s20.07,4.19,30.05-3.55
	c0,0,14.84,11.71,24.99,7.61c10.15-4.1,17.09-8.79,17.09-8.79s5.22,9.96,16.33,9.46s27.54-6.35,27.34-10.71
	c0,0,20.76-15.51,1.16-27.01c0,0,7.67-23.66-19.24-20.99S72.15,8.23,72.15,8.23S59.93-15.98,43.13-0.65z"/>
<path class="st9" d="M357.68-4.67c0,0-27.22-19.22-56.03,3.84c-28.82,23.06,9.61,39.08,9.61,39.08s20.01,4.48,30.42-1.92
	c0,0,14.41,10.89,24.81,7.69c10.41-3.2,17.61-7.05,17.61-7.05s4.8,8.97,16.01,8.97c11.21,0,28.02-4.48,28.02-8.33
	c0,0,21.61-12.81,2.4-23.71c0,0,8.81-20.5-18.41-19.22s-25.61,9.61-25.61,9.61S375.29-17.48,357.68-4.67z"/>
<path class="st10" d="M258.56,28.09c0,0-27.97-20.59-55.34,6.88s11.53,43.92,11.53,43.92s20.07,4.19,30.05-3.55
	c0,0,14.84,11.71,24.99,7.61s17.09-8.79,17.09-8.79s5.22,9.96,16.33,9.46c11.11-0.5,27.54-6.35,27.34-10.71
	c0,0,20.76-15.51,1.16-27.01c0,0,7.67-23.66-19.24-20.99s-24.89,12.06-24.89,12.06S275.36,12.76,258.56,28.09z"/>
<path class="st10" d="M217.9,105.87c0,0-26.86-17.54-53.14,5.86s11.07,37.42,11.07,37.42s19.27,3.57,28.86-3.02
	c0,0,14.25,9.98,24,6.48s16.41-7.49,16.41-7.49s5.01,8.49,15.68,8.06s26.44-5.41,26.25-9.12c0,0,19.93-13.21,1.11-23.01
	c0,0,7.36-20.16-18.47-17.88s-23.9,10.27-23.9,10.27S234.03,92.81,217.9,105.87z"/>
<path class="st11" d="M97.37,51.08c0,0-27.97-20.59-55.34,6.88s11.53,43.92,11.53,43.92s20.07,4.19,30.05-3.55
	c0,0,14.84,11.71,24.99,7.61c10.15-4.1,17.09-8.79,17.09-8.79s5.22,9.96,16.33,9.46s27.54-6.35,27.34-10.71
	c0,0,20.76-15.51,1.16-27.01c0,0,7.67-23.66-19.24-20.99c-26.91,2.67-24.89,12.06-24.89,12.06S114.17,35.75,97.37,51.08z"/>
<line class="st12" x1="33.27" y1="300.42" x2="33.27" y2="310.15"/>
<line class="st12" x1="57.52" y1="232.78" x2="57.52" y2="242.51"/>
<line class="st12" x1="61" y1="122.41" x2="61" y2="132.14"/>
<line class="st12" x1="43.1" y1="138.7" x2="43.1" y2="148.43"/>
<line class="st12" x1="10.72" y1="127.53" x2="10.72" y2="137.26"/>
<line class="st12" x1="36.24" y1="200.86" x2="36.24" y2="210.59"/>
<line class="st12" x1="93.17" y1="245.55" x2="93.17" y2="255.28"/>
<line class="st12" x1="23.94" y1="105.17" x2="23.94" y2="114.91"/>
<line class="st12" x1="14.7" y1="173.1" x2="14.7" y2="182.83"/>
<line class="st12" x1="12.21" y1="84.03" x2="12.21" y2="93.77"/>
<line class="st12" x1="21.35" y1="253.43" x2="21.35" y2="263.16"/>
<line class="st12" x1="106.68" y1="153.44" x2="106.68" y2="163.17"/>
<line class="st12" x1="79.11" y1="141.34" x2="79.11" y2="151.07"/>
<line class="st12" x1="149.34" y1="202.06" x2="149.34" y2="211.79"/>
<line class="st12" x1="155.78" y1="264.06" x2="155.78" y2="273.8"/>
<line class="st12" x1="195.07" y1="340.81" x2="195.07" y2="350.55"/>
<line class="st12" x1="79.03" y1="188.69" x2="79.03" y2="198.42"/>
<line class="st12" x1="187" y1="212.75" x2="187" y2="222.48"/>
<line class="st12" x1="120.27" y1="194.16" x2="120.27" y2="203.9"/>
<line class="st12" x1="90.55" y1="303.08" x2="90.55" y2="312.82"/>
<line class="st12" x1="148.57" y1="116.25" x2="148.57" y2="125.99"/>
<line class="st12" x1="124.53" y1="234.59" x2="124.01" y2="224.87"/>
<line class="st12" x1="229.1" y1="333.89" x2="229.1" y2="343.63"/>
<line class="st12" x1="154.19" y1="307.47" x2="154.19" y2="317.2"/>
<line class="st12" x1="22.21" y1="344.79" x2="22.21" y2="354.53"/>
<line class="st12" x1="101.51" y1="369.53" x2="101.51" y2="379.27"/>
<line class="st12" x1="124.5" y1="114.23" x2="124.5" y2="123.97"/>
<line class="st12" x1="229.95" y1="180.12" x2="229.95" y2="189.85"/>
<line class="st12" x1="148.84" y1="160.59" x2="148.84" y2="170.32"/>
<line class="st12" x1="335.96" y1="366.34" x2="335.96" y2="376.07"/>
<line class="st12" x1="55.83" y1="345.65" x2="55.83" y2="355.39"/>
<line class="st12" x1="286.76" y1="158.22" x2="286.76" y2="167.95"/>
<line class="st12" x1="258.72" y1="180.39" x2="258.72" y2="190.13"/>
<line class="st12" x1="236.88" y1="207.13" x2="236.88" y2="216.86"/>
<line class="st12" x1="271.91" y1="290.45" x2="271.91" y2="300.19"/>
<line class="st12" x1="225.31" y1="234.5" x2="225.31" y2="244.24"/>
<line class="st12" x1="309.74" y1="219.34" x2="309.74" y2="229.07"/>
<line class="st12" x1="195.47" y1="163.76" x2="195.47" y2="173.5"/>
<line class="st12" x1="193.88" y1="255.37" x2="193.88" y2="265.1"/>
<line class="st12" x1="320.45" y1="275.84" x2="320.45" y2="285.57"/>
<line class="st12" x1="325.45" y1="152.76" x2="325.45" y2="162.5"/>
<line class="st12" x1="366.21" y1="112.33" x2="366.21" y2="122.07"/>
<line class="st12" x1="360.66" y1="82.66" x2="360.66" y2="92.4"/>
<line class="st12" x1="351.86" y1="55.27" x2="351.86" y2="65.01"/>
<line class="st12" x1="312.08" y1="103.53" x2="312.08" y2="113.26"/>
<line class="st12" x1="365.39" y1="211.27" x2="365.39" y2="221.01"/>
<line class="st12" x1="49.31" y1="391.89" x2="49.31" y2="401.62"/>
<line class="st12" x1="246.52" y1="165.2" x2="246.52" y2="174.93"/>
<line class="st12" x1="189.38" y1="431.51" x2="189.38" y2="441.25"/>
<line class="st12" x1="32.73" y1="351.34" x2="32.73" y2="361.07"/>
<line class="st12" x1="72.35" y1="358.71" x2="72.35" y2="368.45"/>
<line class="st12" x1="40.1" y1="369.25" x2="40.1" y2="378.98"/>
<line class="st12" x1="305.49" y1="323.18" x2="305.49" y2="332.91"/>
<line class="st12" x1="221.44" y1="454.94" x2="221.44" y2="464.67"/>
<line class="st12" x1="93.62" y1="509.76" x2="93.62" y2="519.5"/>
<line class="st12" x1="140.02" y1="454.94" x2="140.02" y2="464.67"/>
<line class="st12" x1="110.89" y1="404.93" x2="110.89" y2="414.66"/>
<line class="st12" x1="47.47" y1="365.81" x2="47.47" y2="375.55"/>
<line class="st12" x1="266.86" y1="338.39" x2="266.86" y2="348.12"/>
<line class="st12" x1="56.9" y1="333.25" x2="56.9" y2="342.98"/>
<line class="st12" x1="69.94" y1="417.74" x2="69.94" y2="427.48"/>
<line class="st12" x1="64.45" y1="369.79" x2="64.45" y2="379.52"/>
<line class="st12" x1="245.46" y1="266.1" x2="245.46" y2="275.84"/>
<line class="st12" x1="175.64" y1="382.46" x2="175.64" y2="392.2"/>
<line class="st12" x1="241.15" y1="388.75" x2="242.22" y2="398.43"/>
<path class="st13" d="M115.22,544.43c0,0,40.28,7.75,51.13-4.65s32.53,10.84,40.28,7.75c7.75-3.1,34.08,4.65,34.08,15.49
	c0,10.84-6.2,26.34-26.34,21.69s-37.18-10.84-52.68-4.65s-27.89,17.04-40.28,13.94c-12.39-3.1-30.99-4.65-37.18-15.49
	c-6.2-10.84-20.14-27.89-7.75-35.63S115.22,544.43,115.22,544.43z"/>
<path class="st14" d="M120.87,553.77c0,0,35.02,4.66,44.61-1.4c9.58-6.06,28.24,6.08,35.02,4.66c6.78-1.42,29.65,2.98,29.54,8.45
	c-0.12,5.47-5.68,13.18-23.19,10.46s-32.29-6.16-45.86-3.32c-13.57,2.84-24.49,8.09-35.25,6.29c-10.77-1.79-26.95-2.92-32.24-8.51
	c-5.28-5.59-17.25-14.45-6.37-18.13C98.01,548.6,120.87,553.77,120.87,553.77z"/>
</svg>
