<?xml version="1.0" encoding="utf-8"?>
<!-- Generator: Adobe Illustrator 25.4.1, SVG Export Plug-In . SVG Version: 6.00 Build 0)  -->
<svg version="1.1" id="Layer_1" xmlns="http://www.w3.org/2000/svg" xmlns:xlink="http://www.w3.org/1999/xlink" x="0px" y="0px"
	 viewBox="0 0 383.21 1039.06" style="enable-background:new 0 0 383.21 1039.06;" xml:space="preserve">
<style type="text/css">
	.st0{fill:#DEECF9;}
	.st1{fill:#DA8827;}
	.st2{fill:#3B456A;}
	.st3{fill:#8DB3BA;}
	.st4{fill:#427093;}
	.st5{fill:#303B64;}
	.st6{fill:#E9BB8D;}
</style>
<g>
	<rect id="Rectangle_4" x="-0.94" y="3.34" class="st0" width="384.3" height="266.51"/>
	<ellipse id="Ellipse_2" class="st1" cx="81.06" cy="124.84" rx="47" ry="48.5"/>
	<path id="Path_7" class="st2" d="M146.42,309.85c0,0,8.27-28.12-11.59-38.22s-13.94-29.25-29.86-29.49s-18.07-15.53-40.36-14.17
		s-14.32-20.16-32.62-19.99c-10.97,0.09-21.83,2.12-32.08,6.01l0.31,367.1l90.95-12.32l2.45-58.1l-7.5-64.5l44.09-65.48l32.48-6.57
		l2.36-55.97L146.42,309.85z"/>
	<path id="Path_10" class="st3" d="M-1.01,290.84l95.34,48.97l174.69-86.1c0,0-52.68-40.54-71.82-36.45s-22.95,16.29-52.68,13.12
		s-53.33-4.78-64.62-13.12s-32.41,0-32.41,0v-32.44l-48.5-33.64L-1.01,290.84z"/>
	<path class="st4" d="M383.37,307.36V86.05c0,0-15.17-16.39-36.04,0s-15.17,39.34-30.35,39.34c-15.17,0-18.97,31.15-18.97,31.15
		s5.69,27.87-3.79,29.51c-9.48,1.64-24.66,21.31-24.66,34.43s-55.01,39.34-68.29,39.34s-36.04,13.11-36.04,13.11l32.25,50.82
		l183.99,4.92L383.37,307.36z"/>
	<path id="Path_8" class="st5" d="M119.37,294.25c0,0,21.7,3.33,34.19-12.09s27.44-18.6,36.48-23.05
		c9.04-4.45,21.64,35.14,21.64,35.14s27.21-31.04,41.83-22.61s33.19-27.58,33.19-27.58s12.7-15.08,29.28-18.05
		c16.59-2.96,7.36-42.13,19.66-30.1c12.3,12.03,16.99-1.31,18.58-12.31c1.6-11-16.12-51.35,0-42.7c9.3,5.05,19.05,9.27,29.13,12.6
		v542.65L190.04,536.39L71.79,472.9l47.58-71.74l50.84-16.42l-70.87-71.2L119.37,294.25z"/>
	<path id="Path_6" class="st6" d="M-0.94,564.01c0,0,73.95-6.94,72.94-56.25s-35.09-61.39-24.26-87.02
		c10.84-25.63,36.25-41.93,70.29-52.53s39.77-34.77,20.72-51.19s11.25-19.49,11.25-19.49s33.73-8.63,41.47,19.49
		c7.74,28.13,22.47,40.91,0,62.68c-22.47,21.77-80.91,12.5-80.91,41.04c0,28.54,67.49,49.71,102.04,57.25
		c34.56,7.54,93.83-10.49,99.95,10.44c6.12,20.94-15.71,40.12,0,48.16c15.71,8.05,43.93-6.2,60.73,81.95s13.35,423.85,13.35,423.85
		H-0.94V564.01z"/>
</g>
</svg>
